<?xml version="1.0" encoding="UTF-8" standalone="no"?>
<svg
   width="757.87109pt"
   height="757.87109pt"
   viewBox="0 0 757.87109 757.87108"
   version="1.2"
   id="svg53"
   sodipodi:docname="basic daisy - Copy.svg"
   inkscape:version="1.1.1 (3bf5ae0d25, 2021-09-20)"
   xmlns:inkscape="http://www.inkscape.org/namespaces/inkscape"
   xmlns:sodipodi="http://sodipodi.sourceforge.net/DTD/sodipodi-0.dtd"
   xmlns="http://www.w3.org/2000/svg"
   xmlns:svg="http://www.w3.org/2000/svg">
  <defs
     id="defs57" />
  <sodipodi:namedview
     id="namedview55"
     pagecolor="#ffffff"
     bordercolor="#999999"
     borderopacity="1"
     inkscape:pageshadow="0"
     inkscape:pageopacity="0"
     inkscape:pagecheckerboard="0"
     inkscape:document-units="pt"
     showgrid="false"
     inkscape:zoom="0.78348214"
     inkscape:cx="672"
     inkscape:cy="365.67521"
     inkscape:window-width="2400"
     inkscape:window-height="1271"
     inkscape:window-x="2391"
     inkscape:window-y="-9"
     inkscape:window-maximized="1"
     inkscape:current-layer="svg53" />
  <g
     id="surface1"
     transform="translate(-125.32031,-125.32031)">
    <path
       style="fill:#f5f5f5;fill-opacity:1;fill-rule:nonzero;stroke:none"
       d="m 501.60937,461.92187 c -63.73046,-106.89453 -151.57031,-336.60156 0,-336.60156 181.76563,0 68.26172,238.47266 0,336.60156"
       id="path34" />
    <path
       style="fill:#f5f5f5;fill-opacity:1;fill-rule:nonzero;stroke:none"
       d="M 532.32031,472.45312 C 562.84375,351.80078 663.15625,127.26172 770.33594,234.4375 898.86328,362.96875 649.97266,451.32812 532.32031,472.45312"
       id="path36" />
    <path
       style="fill:#f5f5f5;fill-opacity:1;fill-rule:nonzero;stroke:none"
       d="m 546.58594,501.61328 c 106.89843,-63.73047 336.60547,-151.56641 336.60547,0 0,181.76172 -238.47266,68.25781 -336.60547,0"
       id="path38" />
    <path
       style="fill:#f5f5f5;fill-opacity:1;fill-rule:nonzero;stroke:none"
       d="M 536.05859,532.32031 C 656.71094,562.84766 881.24219,663.16016 774.07031,770.33594 645.54297,898.86719 557.17969,649.97266 536.05859,532.32031"
       id="path40" />
    <path
       style="fill:#f5f5f5;fill-opacity:1;fill-rule:nonzero;stroke:none"
       d="m 506.89844,546.58594 c 63.72656,106.89843 151.5664,336.60547 0,336.60547 -181.76953,0.004 -68.25782,-238.46875 0,-336.60547"
       id="path42" />
    <path
       style="fill:#f5f5f5;fill-opacity:1;fill-rule:nonzero;stroke:none"
       d="M 476.1875,536.0625 C 445.66406,656.71094 345.34766,881.24609 238.17187,774.07031 109.64453,645.54297 358.53516,557.18359 476.1875,536.0625"
       id="path44" />
    <path
       style="fill:#f5f5f5;fill-opacity:1;fill-rule:nonzero;stroke:none"
       d="m 461.92187,506.89844 c -106.89843,63.72656 -336.60156,151.5664 -336.60156,0 -0.004,-181.76953 238.46875,-68.25782 336.60156,0"
       id="path46" />
    <path
       style="fill:#f5f5f5;fill-opacity:1;fill-rule:nonzero;stroke:none"
       d="M 472.44922,476.19141 C 351.80078,445.66797 127.26172,345.34766 234.4375,238.17969 362.96875,109.64453 451.32422,358.53516 472.44922,476.19141"
       id="path48" />
    <path
       style="fill:#faca1e;fill-opacity:1;fill-rule:nonzero;stroke:none"
       d="m 590.75391,504.25391 c 0,47.77734 -38.72657,86.5039 -86.5,86.5039 -47.77344,0 -86.5,-38.72656 -86.5,-86.5039 0,-47.77344 38.72656,-86.5 86.5,-86.5 47.77343,0 86.5,38.72656 86.5,86.5"
       id="path50" />
  </g>
</svg>
